. 
 
 
http://www.torrentday.com :  Your Key To The Scene.


Now TvTeam with [No-RAR] Releases.



(((((((((((((= Enjoy No RAR releases =))))))))))))))))))))



...................................NFO:....................................

.*******************************************************************************
                    The.Front.2010.DVDRip.AC3.X264-BARC0DE
*******************************************************************************

-------------------------------------------------------------------------------
                              General Information
-------------------------------------------------------------------------------
Type.................: Movie
Name.................: The Front
Movie Information....: http://www.imdb.com/title/tt1493246/
Genre................: Crime | Mystery

-------------------------------------------------------------------------------
                                    PLOT
-------------------------------------------------------------------------------
In Cornwell's latest mystery thriller, the celebrated author's At Risk team pairs up 
once again to tackle a loose association of police departments known as the Front.

-------------------------------------------------------------------------------
                                    CAST
-------------------------------------------------------------------------------
Andie MacDowell	... 	Monique Lamont
Daniel Sunjata	... 	Win Garano
Ashley Williams	... 	Stump
Joe Grifasi	... 	Mr. Zeffirelli
Dane DeHaan	... 	Cal Tradd
Diahann Carroll	... 	Nana
Zak Santiago	... 	Roy
Matt Bois	... 	Lonnie Paris
Patricia Cornwell	... 	Waitress
Stephanie Crosby	... 	Newscaster
Zoe Doyle	... 	Nurse #2
Rutherford Gray	... 	Detective #1
Staci Gruber	... 	Bartender
Quancetia Hamilton	... 	Aide
Heather Hanson	... 	Cal's Mother

-------------------------------------------------------------------------------
                                    MEDiA iNFO
-------------------------------------------------------------------------------

General
Complete name                    : The.Front.2010.DVDRip.AC3.X264-BARC0DE.mkv
Format                           : Matroska
File size                        : 1.46 GiB
Duration                         : 1h 31mn
Overall bit rate                 : 2 284 Kbps

Video
ID                               : 1
Format                           : AVC
Format/Info                      : Advanced Video Codec
Format profile                   : High@L3.0
Format settings, CABAC           : Yes
Format settings, ReFrames        : 3 frames
Muxing mode                      : Container profile=Unknown@3.0
Codec ID                         : V_MPEG4/ISO/AVC
Duration                         : 1h 31mn
Bit rate                         : 1 791 Kbps
Nominal bit rate                 : 1 831 Kbps
Width                            : 720 pixels
Height                           : 400 pixels
Display aspect ratio             : 16:9
Frame rate                       : 25.000 fps
Resolution                       : 8 bits
Colorimetry                      : 4:2:0
Scan type                        : Progressive
Bits/(Pixel*Frame)               : 0.249
Stream size                      : 1.15 GiB (78%)
Writing library                  : x264 core 79


Audio
ID                               : 2
Format                           : AC-3
Format/Info                      : Audio Coding 3
Format_Settings_ModeExtension    : CM (complete main)
Codec ID                         : A_AC3
Duration                         : 1h 31mn
Bit rate mode                    : Constant
Bit rate                         : 448 Kbps
Channel(s)                       : 6 channels
Channel positions                : Front: L C R, Side: L R, LFE
Sampling rate                    : 48.0 KHz
Stream size                      : 294 MiB (20%)
Language                         : English

Menu
00:00:00.000                     : Chapter 1
00:11:51.548                     : Chapter 2
00:19:55.028                     : Chapter 3
00:30:34.748                     : Chapter 4
00:41:31.668                     : Chapter 5
00:49:42.268                     : Chapter 6
00:59:34.668                     : Chapter 7
01:09:03.868                     : Chapter 8
01:19:45.348                     : Chapter 9
01:30:36.788                     : Chapter 10